<svg fill="#000000" xmlns="http://www.w3.org/2000/svg" viewBox="0 0 64 64"><g data-name="46 note, clipboard, board"><path d="M42,19H22a1,1,0,0,1-1-1V6a1,1,0,0,1,1-1H42a1,1,0,0,1,1,1V18A1,1,0,0,1,42,19ZM23,17H41V7H23ZM55,54V14a5,5,0,0,0-5-5H46v2h4a3,3,0,0,1,3,3V54a3,3,0,0,1-3,3H14a3,3,0,0,1-3-3V14a3,3,0,0,1,3-3h4V9H14a5,5,0,0,0-5,5V54a5,5,0,0,0,5,5H50A5,5,0,0,0,55,54ZM26,35H18a1,1,0,0,1-1-1V26a1,1,0,0,1,1-1h8a1,1,0,0,1,1,1v8A1,1,0,0,1,26,35Zm-7-2h6V27H19Zm29-8H32v2H48Zm0,8H32v2H48Zm0,8H16v2H48Zm0,8H16v2H48Z"></path></g></svg>