<svg fill="#000000" xmlns="http://www.w3.org/2000/svg" data-name="Layer 1" viewBox="0 0 128 128"><path d="M64,12A36,36,0,0,0,35.7,70.26a36.6,36.6,0,0,0,7.64,7.23A6.06,6.06,0,0,1,46,82.43V86a6,6,0,0,0,4,5.65V102h0a14,14,0,0,0,14,14h0a14,14,0,0,0,14-14V91.65A6,6,0,0,0,82,86V82.43a6.06,6.06,0,0,1,2.66-4.94A36,36,0,0,0,91,24.14,36.08,36.08,0,0,0,64,12Zm10,88H54V92H74ZM64,112h0a10,10,0,0,1-9.79-8H73.8A10,10,0,0,1,64,112ZM76,88H52a2,2,0,0,1-2-2V84H78v2A2,2,0,0,1,76,88ZM89.16,67.78a32.37,32.37,0,0,1-6.8,6.43,10.27,10.27,0,0,0-4,5.79H66V70.48l5.07-5.07a2,2,0,1,0-2.83-2.82L64,66.83l-4.24-4.24a2,2,0,1,0-2.83,2.82L62,70.48V80H49.69a10.27,10.27,0,0,0-4-5.79,32,32,0,1,1,43.52-6.43Z"></path></svg>